<?xml version="1.0" standalone="no"?><!DOCTYPE svg PUBLIC "-//W3C//DTD SVG 1.1//EN"
        "http://www.w3.org/Graphics/SVG/1.1/DTD/svg11.dtd">
<svg class="icon" viewBox="0 0 1024 1024" version="1.1" xmlns="http://www.w3.org/2000/svg"
     width="400" height="400">
    <path d="M512 512m-512 0a512 512 0 1 0 1024 0 512 512 0 1 0-1024 0Z" fill="#FF3750" p-id="11214"></path>
    <path d="M345.206154 463.793231h326.183384v233.550769a63.015385 63.015385 0 0 1-63.015384 63.015385h-200.152616a63.015385 63.015385 0 0 1-63.015384-63.015385v-233.550769z m33.358769-177.900308H638.030769a63.015385 63.015385 0 0 1 63.015385 63.015385v55.611077H315.549538V348.908308a63.015385 63.015385 0 0 1 63.015385-63.015385z"
          fill="#F2F2F2"></path>
</svg>